# xmcd
#
# Track frame offsets:
#	150
#	20460
#	35530
#	54202
#	72522
#	85715
#	107167
#	129535
#	148810
#	167577
#	189077
#	206157
#	229122
#	250187
#
# Disc length: 3599 seconds
#
# Revision: 4
# Processed by: cddbd v1.4PL0 Copyright (c) Steve Scherf et al.
# Submitted via: CDmax 1.9
#
DISCID=bd0e0d0e
DTITLE=Jewel - This Way
DYEAR=2001
DGENRE=Rock
TTITLE0=Standing Still
TTITLE1=Jesus Loves You
TTITLE2=Everybody Needs Someone Sometime
TTITLE3=Break Me
TTITLE4=Do You Want To Play?
TTITLE5=Till We Run Out Of Road
TTITLE6=Serve The Ego
TTITLE7=This Way
TTITLE8=Cleveland
TTITLE9=I Won't Walk Away
TTITLE10=Love Me, Just Leave Me Alone
TTITLE11=The New Wild West
TTITLE12=Grey Matter (Live) [CD Bonus Track)
TTITLE13=Sometimes It Be That Way (Live) [CD Bonus Track)
EXTD=LABEL =Atlantic Recording Corporation\nID =83519-2 (Enhanced CD]\nUPC =
EXTD=07567-83519-21\nCOPYRIGHT =2001
EXTT0=
EXTT1=
EXTT2=
EXTT3=
EXTT4=
EXTT5=
EXTT6=
EXTT7=
EXTT8=
EXTT9=
EXTT10=
EXTT11=
EXTT12=
EXTT13=
PLAYORDER=
